<svg width="16" height="16" fill="none" xmlns="http://www.w3.org/2000/svg"><path d="M16 0H0v16h16V0Z" fill="#F7DF1E"/><path d="M10.748 12.5c.322.526.742.913 1.483.913.623 0 1.021-.311 1.021-.742 0-.515-.409-.698-1.095-.998l-.375-.16c-1.085-.463-1.806-1.042-1.806-2.266 0-1.128.86-1.986 2.202-1.986.956 0 1.643.332 2.138 1.204l-1.17.751c-.258-.462-.536-.644-.968-.644-.44 0-.72.28-.72.644 0 .451.28.634.925.913l.376.161c1.277.548 1.998 1.107 1.998 2.362 0 1.354-1.063 2.096-2.491 2.096-1.396 0-2.298-.666-2.74-1.538l1.222-.71Zm-5.311.13c.236.42.45.774.967.774.494 0 .806-.194.806-.945V7.347h1.503v5.132c0 1.557-.912 2.266-2.245 2.266-1.203 0-1.9-.623-2.255-1.374l1.224-.74Z" fill="#000"/></svg>