<svg width="21" height="16" fill="none" xmlns="http://www.w3.org/2000/svg"><path d="M18.071 9.196a4.288 4.288 0 0 0-1.901.448c-.196-.393-.391-.744-.426-1.001-.038-.3-.084-.483-.038-.842.046-.358.253-.869.25-.908-.005-.039-.047-.222-.469-.226-.421-.004-.785.082-.828.195-.042.113-.122.37-.176.635-.073.39-.843 1.781-1.284 2.51-.142-.285-.265-.534-.291-.733-.039-.3-.085-.483-.039-.842.046-.358.253-.869.25-.907-.005-.04-.047-.223-.468-.226-.422-.004-.786.081-.828.194-.043.113-.089.378-.177.636-.088.257-1.112 2.58-1.38 3.18a18.17 18.17 0 0 1-.341.72s-.004.012-.015.031a9.815 9.815 0 0 1-.115.222v.004c-.058.106-.12.203-.15.203-.023 0-.065-.28.008-.663.153-.806.517-2.06.513-2.104 0-.023.07-.241-.237-.354-.3-.113-.407.074-.433.074-.027 0-.046.066-.046.066s.333-1.41-.637-1.41c-.605 0-1.441.673-1.855 1.281-.26.145-.817.452-1.41.784-.227.128-.46.257-.68.378-.015-.016-.03-.036-.045-.051C3.65 9.216 1.48 8.316 1.572 6.605c.034-.624.245-2.26 4.167-4.248 3.228-1.617 5.796-1.169 6.24-.175.637 1.419-1.375 4.053-4.71 4.435-1.273.144-1.94-.355-2.11-.542-.175-.195-.202-.207-.267-.168-.108.059-.039.234 0 .335.1.265.51.733 1.203.963.614.203 2.105.316 3.91-.394 2.02-.795 3.6-3.004 3.136-4.855C12.678.078 9.611-.542 6.71.506 4.984 1.13 3.113 2.113 1.767 3.39.17 4.91-.084 6.23.02 6.784c.372 1.964 3.036 3.242 4.102 4.19l-.146.081c-.532.269-2.564 1.348-3.07 2.49-.575 1.294.092 2.221.533 2.346 1.368.386 2.775-.308 3.53-1.454.755-1.145.663-2.634.315-3.316a.082.082 0 0 0-.016-.023l.418-.25c.272-.163.54-.315.77-.44-.13.363-.226.795-.272 1.418-.057.733.238 1.684.625 2.058.173.164.376.168.506.168.453 0 .656-.382.882-.834.276-.554.525-1.197.525-1.197s-.31 1.738.533 1.738c.307 0 .617-.405.755-.611v.003s.008-.011.023-.039l.05-.081v-.008c.123-.218.399-.713.809-1.535.53-1.06 1.039-2.385 1.039-2.385s.046.323.203.86c.092.317.284.663.437.998-.123.176-.2.273-.2.273l.005.004c-.1.133-.207.277-.326.417-.418.507-.916 1.087-.985 1.255-.08.198-.062.343.092.46.11.085.31.097.513.085.376-.027.64-.12.77-.179a2.57 2.57 0 0 0 .664-.354c.41-.308.66-.749.636-1.33-.011-.319-.115-.638-.241-.938.038-.055.073-.11.111-.164.648-.963 1.15-2.019 1.15-2.019s.046.324.203.862c.077.272.234.569.372.857-.61.503-.985 1.087-1.12 1.469-.24.71-.053 1.029.304 1.103.16.035.39-.043.56-.117.214-.07.467-.191.708-.37.41-.308.806-.737.783-1.317a2.523 2.523 0 0 0-.177-.78c.518-.218 1.185-.339 2.036-.238 1.825.219 2.185 1.376 2.116 1.863-.07.487-.453.752-.579.834-.127.082-.169.11-.157.168.015.085.076.081.184.066.15-.027.958-.394.993-1.29.057-1.146-1.016-2.396-2.914-2.385ZM3.995 14.02c-.606.67-1.45.924-1.814.71-.39-.23-.237-1.22.506-1.93.453-.432 1.035-.833 1.423-1.079.088-.054.218-.132.375-.23l.042-.023.092-.058c.273 1.013.012 1.905-.624 2.61Zm4.408-3.047c-.21.522-.652 1.859-.92 1.785-.23-.063-.372-1.076-.046-2.077.165-.503.514-1.103.717-1.337.33-.374.694-.498.782-.347.111.2-.403 1.649-.533 1.976Zm3.638 1.77c-.088.046-.172.077-.21.054-.028-.016.038-.078.038-.078s.456-.499.636-.725c.103-.132.226-.288.356-.464v.051c0 .596-.567.998-.82 1.161Zm2.806-.652c-.065-.046-.053-.202.165-.69.084-.19.284-.51.625-.817.038.124.065.245.061.358-.004.752-.533 1.033-.85 1.15Z" fill="#CD6799"/></svg>