<svg width="17" height="16" fill="none" xmlns="http://www.w3.org/2000/svg"><path fill-rule="evenodd" clip-rule="evenodd" d="M6.072 0c.472 0 .933.136 1.329.39.396.254.711.614.915 1.036l.67 1.39c.046.096.114.17.192.22a.46.46 0 0 0 .249.075H14.5c.675 0 1.315.279 1.78.762.465.481.72 1.127.72 1.794v7.777c0 .667-.255 1.313-.72 1.794A2.473 2.473 0 0 1 14.5 16h-12a2.473 2.473 0 0 1-1.78-.761A2.585 2.585 0 0 1 0 13.444V2.556C0 1.889.255 1.243.72.76A2.473 2.473 0 0 1 2.5 0h3.572Zm.25 2.074A.46.46 0 0 0 6.072 2H2.5c-.12 0-.244.05-.34.15a.585.585 0 0 0-.16.406v10.888c0 .16.061.305.16.406.096.1.22.15.34.15h12c.12 0 .244-.05.34-.15a.586.586 0 0 0 .16-.406V5.667a.585.585 0 0 0-.16-.406.474.474 0 0 0-.34-.15H9.427a2.46 2.46 0 0 1-1.328-.39 2.536 2.536 0 0 1-.915-1.036l-.67-1.39a.537.537 0 0 0-.192-.22Z" fill="#0ea5e9"/></svg>